# xmcd CD database file
#
# Track frame offsets:
#	150
#	13221
#	40090
#	56074
#	73004
#	90515
#	104160
#	116615
#	130136
#	145220
#	158820
#	182008
#	195362
#
# Disc length: 2756 seconds
#
# Revision: 1
# Processed by: cddbd v1.5.2PL0 Copyright (c) Steve Scherf et al.
# Submitted via: CDex 1.51
#
DISCID=b50ac20d
DTITLE=Various Artist - CARTE Blanche BLUES à BEN HARPER
DYEAR=2007
DGENRE=Blues
TTITLE0=John Lee Hooker - Walkin' The Boogie
TTITLE1=Muddy Waters - Crosseyed Cat
TTITLE2=Taj Mahal - Going Up To The Country, Paint My Mailbox Blue
TTITLE3=Bo Weavil - Big Road Blues
TTITLE4=Little Feat - Dixie Chicken
TTITLE5=Lightnin' Hopkins - Mojo Hand
TTITLE6=Mississippi John Hurt - Candy Man Blues
TTITLE7=Robert Johnson - Sweet Home Chicago
TTITLE8=Blind Willie Johnson - Dark Was The Night
TTITLE9=Bukka White - Shake 'Em On Down
TTITLE10=Sonny Terry and Brownie McGhee - Blues For The Lowlands
TTITLE11=Skip James - Devil Got My Woman
TTITLE12=Blind Willie McTell - Statesboro Blues
EXTD=YEAR: 2007
EXTT0=
EXTT1=
EXTT2=
EXTT3=
EXTT4=
EXTT5=
EXTT6=
EXTT7=
EXTT8=
EXTT9=
EXTT10=
EXTT11=
EXTT12=
PLAYORDER=
